<svg width="101" height="100" viewBox="0 0 101 100" fill="none" xmlns="http://www.w3.org/2000/svg">
<g clip-path="url(#clip0_304_13)">
<path d="M50.5 93.75C38.8968 93.75 27.7688 89.1406 19.5641 80.9359C11.3594 72.7312 6.75 61.6032 6.75 50C6.75 38.3968 11.3594 27.2688 19.5641 19.0641C27.7688 10.8594 38.8968 6.25 50.5 6.25C62.1032 6.25 73.2312 10.8594 81.4359 19.0641C89.6406 27.2688 94.25 38.3968 94.25 50C94.25 61.6032 89.6406 72.7312 81.4359 80.9359C73.2312 89.1406 62.1032 93.75 50.5 93.75ZM50.5 100C63.7608 100 76.4785 94.7322 85.8553 85.3553C95.2322 75.9785 100.5 63.2608 100.5 50C100.5 36.7392 95.2322 24.0215 85.8553 14.6447C76.4785 5.26784 63.7608 0 50.5 0C37.2392 0 24.5215 5.26784 15.1447 14.6447C5.76784 24.0215 0.5 36.7392 0.5 50C0.5 63.2608 5.76784 75.9785 15.1447 85.3553C24.5215 94.7322 37.2392 100 50.5 100V100Z" fill="#f7f7f7"/>
<path d="M69.0625 31.0625C69.018 31.1057 68.9763 31.1516 68.9375 31.2L47.2313 58.8563L34.15 45.7688C33.2614 44.9408 32.0862 44.49 30.8718 44.5114C29.6574 44.5328 28.4987 45.0248 27.6399 45.8836C26.7811 46.7425 26.2891 47.9011 26.2677 49.1155C26.2463 50.3299 26.697 51.5052 27.525 52.3938L44.0625 68.9375C44.5081 69.3822 45.0386 69.7326 45.6224 69.9679C46.2063 70.2031 46.8316 70.3183 47.461 70.3066C48.0903 70.295 48.7109 70.1567 49.2856 69.9C49.8604 69.6433 50.3776 69.2734 50.8063 68.8125L75.7563 37.625C76.6059 36.7333 77.0704 35.5431 77.0494 34.3117C77.0284 33.0803 76.5236 31.9066 75.6441 31.0444C74.7647 30.1821 73.5812 29.7007 72.3496 29.7041C71.118 29.7075 69.9372 30.1955 69.0625 31.0625V31.0625Z" fill="#f7f7f7"/>
</g>
<defs>
<clipPath id="clip0_304_13">
<rect width="100" height="100" fill="white" transform="translate(0.5)"/>
</clipPath>
</defs>
</svg>
