<svg width="150" height="150" viewBox="0 0 150 150" fill="none" xmlns="http://www.w3.org/2000/svg">
<path d="M74.7063 12.5C40.4063 12.5 12.5 40.5375 12.5 75C12.5 109.462 40.5375 137.5 75 137.5C109.462 137.5 137.5 109.462 137.5 75C137.5 40.5375 109.331 12.5 74.7063 12.5ZM75 125C47.4313 125 25 102.569 25 75C25 47.4313 47.2937 25 74.7063 25C102.444 25 125 47.4313 125 75C125 102.569 102.569 125 75 125Z" fill="#f7f7f7"/>
<path d="M68.75 43.75H81.25V87.5H68.75V43.75ZM68.75 93.75H81.25V106.25H68.75V93.75Z" fill="#f7f7f7"/>
</svg>
