<svg width="76" height="84" viewBox="0 0 76 84" fill="none" xmlns="http://www.w3.org/2000/svg">
<path d="M8.83333 83.6667H67.1667C69.3768 83.6667 71.4964 82.7887 73.0592 81.2259C74.622 79.6631 75.5 77.5435 75.5 75.3333V37.8333C75.5032 37.285 75.3981 36.7414 75.1907 36.2337C74.9834 35.7261 74.6778 35.2643 74.2917 34.875L40.9583 1.54167C40.1777 0.765623 39.1216 0.330032 38.0208 0.330032C36.9201 0.330032 35.864 0.765623 35.0833 1.54167L1.75 34.875C1.3563 35.2609 1.04309 35.7211 0.828522 36.2289C0.613953 36.7367 0.502289 37.2821 0.5 37.8333V75.3333C0.5 77.5435 1.37797 79.6631 2.94078 81.2259C4.50358 82.7887 6.6232 83.6667 8.83333 83.6667ZM29.6667 75.3333V54.5H46.3333V75.3333H29.6667ZM8.83333 39.5417L38 10.375L67.1667 39.5417V75.3333H54.6667V54.5C54.6667 52.2899 53.7887 50.1702 52.2259 48.6074C50.6631 47.0446 48.5435 46.1667 46.3333 46.1667H29.6667C27.4565 46.1667 25.3369 47.0446 23.7741 48.6074C22.2113 50.1702 21.3333 52.2899 21.3333 54.5V75.3333H8.83333V39.5417Z" fill="black"/>
</svg>
