<svg width="84" height="84" viewBox="0 0 84 84" fill="none" xmlns="http://www.w3.org/2000/svg">
<path d="M50 54.1667C47.0833 54.1667 44.3403 53.4194 41.7708 51.925C39.2014 50.4333 37.1528 48.4028 35.625 45.8333H25V58.3333H75V45.8333H64.375C62.9167 48.4028 60.9028 50.4333 58.3333 51.925C55.7639 53.4194 52.9861 54.1667 50 54.1667ZM50 45.8333C52.2917 45.8333 54.0972 45.1736 55.4167 43.8542C56.7361 42.5347 57.5694 41.2847 57.9167 40.1042C58.125 39.4097 58.5945 38.8028 59.325 38.2833C60.0528 37.7611 60.9028 37.5 61.875 37.5H75V8.33333H25V37.5H38.125C39.0972 37.5 39.9472 37.7778 40.675 38.3333C41.4056 38.8889 41.875 39.4792 42.0833 40.1042C42.4306 41.2847 43.2639 42.5347 44.5833 43.8542C45.9028 45.1736 47.7083 45.8333 50 45.8333ZM50 58.3333H75H25H50ZM25 66.6667C22.7083 66.6667 20.7472 65.8514 19.1167 64.2208C17.4833 62.5875 16.6667 60.625 16.6667 58.3333V8.33333C16.6667 6.04167 17.4833 4.07917 19.1167 2.44583C20.7472 0.815277 22.7083 0 25 0H75C77.2917 0 79.2542 0.815277 80.8875 2.44583C82.5181 4.07917 83.3333 6.04167 83.3333 8.33333V58.3333C83.3333 60.625 82.5181 62.5875 80.8875 64.2208C79.2542 65.8514 77.2917 66.6667 75 66.6667H25ZM8.33333 83.3333C6.04167 83.3333 4.08056 82.5181 2.45 80.8875C0.816667 79.2542 0 77.2917 0 75V20.8333C0 19.6528 0.4 18.6625 1.2 17.8625C1.99722 17.0653 2.98611 16.6667 4.16667 16.6667C5.34722 16.6667 6.3375 17.0653 7.1375 17.8625C7.93472 18.6625 8.33333 19.6528 8.33333 20.8333V75H62.5C63.6806 75 64.6694 75.4 65.4667 76.2C66.2667 76.9972 66.6667 77.9861 66.6667 79.1667C66.6667 80.3472 66.2667 81.3361 65.4667 82.1333C64.6694 82.9333 63.6806 83.3333 62.5 83.3333H8.33333Z" fill="black"/>
</svg>
