<svg width="75" height="76" viewBox="0 0 75 76" fill="none" xmlns="http://www.w3.org/2000/svg">
<path d="M48.75 75.5C49.7446 75.5 50.6984 75.1049 51.4016 74.4017C52.1049 73.6984 52.5 72.7446 52.5 71.75C52.5 70.7554 52.1049 69.8016 51.4016 69.0983C50.6984 68.3951 49.7446 68 48.75 68H17.5C14.8478 68 12.3043 66.9464 10.4289 65.0711C8.55357 63.1957 7.5 60.6522 7.5 58V18C7.5 15.3478 8.55357 12.8043 10.4289 10.9289C12.3043 9.05357 14.8478 8 17.5 8H48.75C49.7446 8 50.6984 7.60491 51.4016 6.90165C52.1049 6.19839 52.5 5.24456 52.5 4.25C52.5 3.25544 52.1049 2.30161 51.4016 1.59835C50.6984 0.895088 49.7446 0.5 48.75 0.5H17.5C12.8587 0.5 8.40752 2.34374 5.12563 5.62563C1.84375 8.90752 0 13.3587 0 18V58C0 62.6413 1.84375 67.0925 5.12563 70.3744C8.40752 73.6563 12.8587 75.5 17.5 75.5H48.75ZM53.705 18.995C54.0668 18.6607 54.4908 18.401 54.953 18.2306C55.4151 18.0602 55.9063 17.9826 56.3985 18.0021C56.8907 18.0216 57.3742 18.1379 57.8214 18.3443C58.2686 18.5507 58.6708 18.8431 59.005 19.205L74.005 35.455C74.6453 36.1479 75.0008 37.0566 75.0008 38C75.0008 38.9434 74.6453 39.8521 74.005 40.545L59.005 56.795C58.3294 57.525 57.3914 57.9567 56.3975 57.9952C55.4035 58.0336 54.435 57.6756 53.705 57C52.975 56.3244 52.5433 55.3864 52.5048 54.3925C52.4664 53.3985 52.8244 52.43 53.5 51.7L62.69 41.745H23.75C22.7554 41.745 21.8016 41.3499 21.0983 40.6467C20.3951 39.9434 20 38.9896 20 37.995C20 37.0004 20.3951 36.0466 21.0983 35.3433C21.8016 34.6401 22.7554 34.245 23.75 34.245H62.685L53.495 24.29C53.1607 23.9282 52.901 23.5042 52.7306 23.042C52.5602 22.5799 52.4826 22.0887 52.5021 21.5965C52.5216 21.1043 52.6379 20.6208 52.8443 20.1736C53.0507 19.7264 53.3431 19.3242 53.705 18.99V18.995Z" fill="black"/>
</svg>
