<svg width="100" height="100" viewBox="0 0 100 100" fill="none" xmlns="http://www.w3.org/2000/svg">
<path d="M84.375 52.375V47.5937L90.375 42.3437C91.481 41.3689 92.2068 40.0345 92.4241 38.5763C92.6414 37.118 92.3362 35.63 91.5625 34.375L84.1875 21.875C83.6395 20.9258 82.8515 20.1374 81.9026 19.5889C80.9537 19.0404 79.8773 18.7511 78.7812 18.75C78.102 18.7448 77.4265 18.8503 76.7812 19.0625L69.1875 21.625C67.8764 20.7538 66.5088 19.9708 65.0937 19.2813L63.5 11.4063C63.2142 9.96752 62.4315 8.67513 61.2889 7.75532C60.1463 6.83551 58.7166 6.34689 57.25 6.375H42.625C41.1584 6.34689 39.7287 6.83551 38.5861 7.75532C37.4435 8.67513 36.6608 9.96752 36.375 11.4063L34.7812 19.2813C33.356 19.9706 31.978 20.7536 30.6562 21.625L23.2187 18.9375C22.5665 18.7676 21.8912 18.7043 21.2187 18.75C20.1227 18.7511 19.0463 19.0404 18.0974 19.5889C17.1485 20.1374 16.3605 20.9258 15.8125 21.875L8.4375 34.375C7.70808 35.6281 7.43703 37.0958 7.67077 38.5268C7.90452 39.9577 8.62851 41.2629 9.71875 42.2188L15.625 47.625V52.4063L9.71875 57.6563C8.59771 58.6187 7.85392 59.9473 7.61937 61.4061C7.38481 62.8649 7.67467 64.3596 8.4375 65.625L15.8125 78.125C16.3605 79.0742 17.1485 79.8626 18.0974 80.4111C19.0463 80.9596 20.1227 81.2489 21.2187 81.25C21.898 81.2552 22.5735 81.1497 23.2187 80.9375L30.8125 78.375C32.1236 79.2462 33.4912 80.0292 34.9062 80.7187L36.5 88.5938C36.7858 90.0325 37.5685 91.3249 38.7111 92.2447C39.8537 93.1645 41.2834 93.6531 42.75 93.625H57.5C58.9666 93.6531 60.3963 93.1645 61.5389 92.2447C62.6815 91.3249 63.4642 90.0325 63.75 88.5938L65.3437 80.7187C66.769 80.0294 68.147 79.2464 69.4687 78.375L77.0312 80.9375C77.6765 81.1497 78.352 81.2552 79.0312 81.25C80.1273 81.2489 81.2037 80.9596 82.1526 80.4111C83.1015 79.8626 83.8895 79.0742 84.4375 78.125L91.5625 65.625C92.2919 64.3719 92.563 62.9042 92.3292 61.4732C92.0955 60.0423 91.3715 58.7371 90.2812 57.7812L84.375 52.375ZM78.7812 75L68.0625 71.375C65.5533 73.5003 62.6856 75.1617 59.5937 76.2812L57.375 87.5H42.625L40.4062 76.4063C37.3388 75.2549 34.4866 73.5964 31.9687 71.5L21.2187 75L13.8437 62.5L22.3437 55C21.7659 51.7652 21.7659 48.4536 22.3437 45.2188L13.8437 37.5L21.2187 25L31.9375 28.625C34.4467 26.4997 37.3144 24.8383 40.4062 23.7188L42.625 12.5H57.375L59.5937 23.5938C62.6612 24.7451 65.5134 26.4036 68.0312 28.5L78.7812 25L86.1562 37.5L77.6562 45C78.2341 48.2348 78.2341 51.5464 77.6562 54.7813L86.1562 62.5L78.7812 75Z" fill="black"/>
<path d="M50 68.75C46.2916 68.75 42.6665 67.6503 39.5831 65.5901C36.4996 63.5298 34.0964 60.6014 32.6773 57.1753C31.2581 53.7492 30.8868 49.9792 31.6103 46.3421C32.3338 42.7049 34.1195 39.364 36.7418 36.7417C39.364 34.1195 42.7049 32.3338 46.3421 31.6103C49.9792 30.8868 53.7492 31.2581 57.1753 32.6773C60.6014 34.0964 63.5298 36.4996 65.5901 39.5831C67.6503 42.6665 68.75 46.2916 68.75 50C68.7751 52.4693 68.3072 54.9187 67.3738 57.2049C66.4404 59.4911 65.0602 61.568 63.3141 63.3141C61.568 65.0602 59.4911 66.4404 57.2049 67.3738C54.9187 68.3072 52.4693 68.7751 50 68.75V68.75ZM50 37.5C48.348 37.4615 46.7053 37.7585 45.1713 38.3731C43.6373 38.9877 42.244 39.907 41.0755 41.0755C39.907 42.244 38.9877 43.6373 38.3731 45.1713C37.7585 46.7053 37.4615 48.348 37.5 50C37.4615 51.652 37.7585 53.2947 38.3731 54.8287C38.9877 56.3627 39.907 57.756 41.0755 58.9245C42.244 60.093 43.6373 61.0123 45.1713 61.6269C46.7053 62.2415 48.348 62.5385 50 62.5C51.6521 62.5385 53.2947 62.2415 54.8287 61.6269C56.3627 61.0123 57.756 60.093 58.9245 58.9245C60.093 57.756 61.0124 56.3627 61.6269 54.8287C62.2415 53.2947 62.5385 51.652 62.5 50C62.5385 48.348 62.2415 46.7053 61.6269 45.1713C61.0124 43.6373 60.093 42.244 58.9245 41.0755C57.756 39.907 56.3627 38.9877 54.8287 38.3731C53.2947 37.7585 51.6521 37.4615 50 37.5Z" fill="black"/>
</svg>
