<svg width="88" height="88" viewBox="0 0 88 88" fill="none" xmlns="http://www.w3.org/2000/svg">
<path d="M19 6.5V19H6.5V6.5H19ZM25.25 81.5V69C25.25 67.3424 24.5915 65.7527 23.4194 64.5806C22.2473 63.4085 20.6576 62.75 19 62.75H6.5C4.8424 62.75 3.25268 63.4085 2.08058 64.5806C0.90848 65.7527 0.25 67.3424 0.25 69V81.5C0.25 83.1576 0.90848 84.7473 2.08058 85.9194C3.25268 87.0915 4.8424 87.75 6.5 87.75H19C20.6576 87.75 22.2473 87.0915 23.4194 85.9194C24.5915 84.7473 25.25 83.1576 25.25 81.5ZM25.25 50.25V37.75C25.25 36.0924 24.5915 34.5027 23.4194 33.3306C22.2473 32.1585 20.6576 31.5 19 31.5H6.5C4.8424 31.5 3.25268 32.1585 2.08058 33.3306C0.90848 34.5027 0.25 36.0924 0.25 37.75V50.25C0.25 51.9076 0.90848 53.4973 2.08058 54.6694C3.25268 55.8415 4.8424 56.5 6.5 56.5H19C20.6576 56.5 22.2473 55.8415 23.4194 54.6694C24.5915 53.4973 25.25 51.9076 25.25 50.25ZM25.25 19V6.5C25.25 4.8424 24.5915 3.25268 23.4194 2.08058C22.2473 0.90848 20.6576 0.25 19 0.25H6.5C4.8424 0.25 3.25268 0.90848 2.08058 2.08058C0.90848 3.25268 0.25 4.8424 0.25 6.5V19C0.25 20.6576 0.90848 22.2473 2.08058 23.4194C3.25268 24.5915 4.8424 25.25 6.5 25.25H19C20.6576 25.25 22.2473 24.5915 23.4194 23.4194C24.5915 22.2473 25.25 20.6576 25.25 19ZM56.5 81.5V69C56.5 67.3424 55.8415 65.7527 54.6694 64.5806C53.4973 63.4085 51.9076 62.75 50.25 62.75H37.75C36.0924 62.75 34.5027 63.4085 33.3306 64.5806C32.1585 65.7527 31.5 67.3424 31.5 69V81.5C31.5 83.1576 32.1585 84.7473 33.3306 85.9194C34.5027 87.0915 36.0924 87.75 37.75 87.75H50.25C51.9076 87.75 53.4973 87.0915 54.6694 85.9194C55.8415 84.7473 56.5 83.1576 56.5 81.5ZM56.5 50.25V37.75C56.5 36.0924 55.8415 34.5027 54.6694 33.3306C53.4973 32.1585 51.9076 31.5 50.25 31.5H37.75C36.0924 31.5 34.5027 32.1585 33.3306 33.3306C32.1585 34.5027 31.5 36.0924 31.5 37.75V50.25C31.5 51.9076 32.1585 53.4973 33.3306 54.6694C34.5027 55.8415 36.0924 56.5 37.75 56.5H50.25C51.9076 56.5 53.4973 55.8415 54.6694 54.6694C55.8415 53.4973 56.5 51.9076 56.5 50.25ZM56.5 19V6.5C56.5 4.8424 55.8415 3.25268 54.6694 2.08058C53.4973 0.90848 51.9076 0.25 50.25 0.25H37.75C36.0924 0.25 34.5027 0.90848 33.3306 2.08058C32.1585 3.25268 31.5 4.8424 31.5 6.5V19C31.5 20.6576 32.1585 22.2473 33.3306 23.4194C34.5027 24.5915 36.0924 25.25 37.75 25.25H50.25C51.9076 25.25 53.4973 24.5915 54.6694 23.4194C55.8415 22.2473 56.5 20.6576 56.5 19ZM50.25 6.5V19H37.75V6.5H50.25ZM81.5 6.5V19H69V6.5H81.5ZM19 37.75V50.25H6.5V37.75H19ZM50.25 37.75V50.25H37.75V37.75H50.25ZM81.5 37.75H69V50.25H81.5V37.75ZM19 69V81.5H6.5V69H19ZM50.25 69V81.5H37.75V69H50.25ZM81.5 69V81.5H69V69H81.5ZM69 0.25C67.3424 0.25 65.7527 0.90848 64.5806 2.08058C63.4085 3.25268 62.75 4.8424 62.75 6.5V19C62.75 20.6576 63.4085 22.2473 64.5806 23.4194C65.7527 24.5915 67.3424 25.25 69 25.25H81.5C83.1576 25.25 84.7473 24.5915 85.9194 23.4194C87.0915 22.2473 87.75 20.6576 87.75 19V6.5C87.75 4.8424 87.0915 3.25268 85.9194 2.08058C84.7473 0.90848 83.1576 0.25 81.5 0.25H69ZM62.75 37.75C62.75 36.0924 63.4085 34.5027 64.5806 33.3306C65.7527 32.1585 67.3424 31.5 69 31.5H81.5C83.1576 31.5 84.7473 32.1585 85.9194 33.3306C87.0915 34.5027 87.75 36.0924 87.75 37.75V50.25C87.75 51.9076 87.0915 53.4973 85.9194 54.6694C84.7473 55.8415 83.1576 56.5 81.5 56.5H69C67.3424 56.5 65.7527 55.8415 64.5806 54.6694C63.4085 53.4973 62.75 51.9076 62.75 50.25V37.75ZM69 62.75C67.3424 62.75 65.7527 63.4085 64.5806 64.5806C63.4085 65.7527 62.75 67.3424 62.75 69V81.5C62.75 83.1576 63.4085 84.7473 64.5806 85.9194C65.7527 87.0915 67.3424 87.75 69 87.75H81.5C83.1576 87.75 84.7473 87.0915 85.9194 85.9194C87.0915 84.7473 87.75 83.1576 87.75 81.5V69C87.75 67.3424 87.0915 65.7527 85.9194 64.5806C84.7473 63.4085 83.1576 62.75 81.5 62.75H69Z" fill="black"/>
</svg>
