<svg width="88" height="88" viewBox="0 0 88 88" fill="none" xmlns="http://www.w3.org/2000/svg">
<path d="M0 9.375C0 6.8886 0.987721 4.50403 2.74587 2.74587C4.50403 0.987721 6.8886 0 9.375 0H28.125C30.6114 0 32.996 0.987721 34.7541 2.74587C36.5123 4.50403 37.5 6.8886 37.5 9.375V28.125C37.5 30.6114 36.5123 32.996 34.7541 34.7541C32.996 36.5123 30.6114 37.5 28.125 37.5H9.375C6.8886 37.5 4.50403 36.5123 2.74587 34.7541C0.987721 32.996 0 30.6114 0 28.125V9.375ZM9.375 6.25C8.5462 6.25 7.75134 6.57924 7.16529 7.16529C6.57924 7.75134 6.25 8.5462 6.25 9.375V28.125C6.25 28.9538 6.57924 29.7487 7.16529 30.3347C7.75134 30.9208 8.5462 31.25 9.375 31.25H28.125C28.9538 31.25 29.7487 30.9208 30.3347 30.3347C30.9208 29.7487 31.25 28.9538 31.25 28.125V9.375C31.25 8.5462 30.9208 7.75134 30.3347 7.16529C29.7487 6.57924 28.9538 6.25 28.125 6.25H9.375ZM50 9.375C50 6.8886 50.9877 4.50403 52.7459 2.74587C54.504 0.987721 56.8886 0 59.375 0H78.125C80.6114 0 82.996 0.987721 84.7541 2.74587C86.5123 4.50403 87.5 6.8886 87.5 9.375V28.125C87.5 30.6114 86.5123 32.996 84.7541 34.7541C82.996 36.5123 80.6114 37.5 78.125 37.5H59.375C56.8886 37.5 54.504 36.5123 52.7459 34.7541C50.9877 32.996 50 30.6114 50 28.125V9.375ZM59.375 6.25C58.5462 6.25 57.7513 6.57924 57.1653 7.16529C56.5792 7.75134 56.25 8.5462 56.25 9.375V28.125C56.25 28.9538 56.5792 29.7487 57.1653 30.3347C57.7513 30.9208 58.5462 31.25 59.375 31.25H78.125C78.9538 31.25 79.7487 30.9208 80.3347 30.3347C80.9208 29.7487 81.25 28.9538 81.25 28.125V9.375C81.25 8.5462 80.9208 7.75134 80.3347 7.16529C79.7487 6.57924 78.9538 6.25 78.125 6.25H59.375ZM0 59.375C0 56.8886 0.987721 54.504 2.74587 52.7459C4.50403 50.9877 6.8886 50 9.375 50H28.125C30.6114 50 32.996 50.9877 34.7541 52.7459C36.5123 54.504 37.5 56.8886 37.5 59.375V78.125C37.5 80.6114 36.5123 82.996 34.7541 84.7541C32.996 86.5123 30.6114 87.5 28.125 87.5H9.375C6.8886 87.5 4.50403 86.5123 2.74587 84.7541C0.987721 82.996 0 80.6114 0 78.125V59.375ZM9.375 56.25C8.5462 56.25 7.75134 56.5792 7.16529 57.1653C6.57924 57.7513 6.25 58.5462 6.25 59.375V78.125C6.25 78.9538 6.57924 79.7487 7.16529 80.3347C7.75134 80.9208 8.5462 81.25 9.375 81.25H28.125C28.9538 81.25 29.7487 80.9208 30.3347 80.3347C30.9208 79.7487 31.25 78.9538 31.25 78.125V59.375C31.25 58.5462 30.9208 57.7513 30.3347 57.1653C29.7487 56.5792 28.9538 56.25 28.125 56.25H9.375ZM50 59.375C50 56.8886 50.9877 54.504 52.7459 52.7459C54.504 50.9877 56.8886 50 59.375 50H78.125C80.6114 50 82.996 50.9877 84.7541 52.7459C86.5123 54.504 87.5 56.8886 87.5 59.375V78.125C87.5 80.6114 86.5123 82.996 84.7541 84.7541C82.996 86.5123 80.6114 87.5 78.125 87.5H59.375C56.8886 87.5 54.504 86.5123 52.7459 84.7541C50.9877 82.996 50 80.6114 50 78.125V59.375ZM59.375 56.25C58.5462 56.25 57.7513 56.5792 57.1653 57.1653C56.5792 57.7513 56.25 58.5462 56.25 59.375V78.125C56.25 78.9538 56.5792 79.7487 57.1653 80.3347C57.7513 80.9208 58.5462 81.25 59.375 81.25H78.125C78.9538 81.25 79.7487 80.9208 80.3347 80.3347C80.9208 79.7487 81.25 78.9538 81.25 78.125V59.375C81.25 58.5462 80.9208 57.7513 80.3347 57.1653C79.7487 56.5792 78.9538 56.25 78.125 56.25H59.375Z" fill="black"/>
</svg>
